<svg width="217" height="91" viewBox="0 0 217 91" fill="none" xmlns="http://www.w3.org/2000/svg">
<path d="M51.9803 7.88C53.3029 8.136 54.2843 8.584 54.9243 9.224C55.6069 9.864 55.9483 10.6107 55.9483 11.464C55.9483 12.872 55.5429 13.896 54.7323 14.536C53.9643 15.176 52.7269 15.432 51.0203 15.304C47.1803 15.0053 44.1723 14.8133 41.9963 14.728C39.8629 14.6 37.0469 14.5147 33.5483 14.472C31.9696 22.3227 30.5189 30.216 29.1963 38.152C28.7269 41.0533 28.2363 44.424 27.7243 48.264C27.2123 52.0613 26.8709 55.1333 26.7003 57.48C26.6149 58.7173 26.1029 59.6773 25.1643 60.36C24.2256 61 23.0949 61.32 21.7723 61.32C20.3643 61.32 19.2763 60.9787 18.5083 60.296C17.7403 59.6133 17.3563 58.7173 17.3563 57.608C17.3563 56.584 17.5056 54.8987 17.8043 52.552C18.1456 50.1627 18.5296 47.6667 18.9563 45.064C19.4256 42.4613 19.7883 40.2 20.0443 38.28C20.5136 35.0373 21.0469 31.816 21.6443 28.616C22.2416 25.416 22.8389 22.3867 23.4363 19.528C23.5643 18.888 23.7136 18.1627 23.8843 17.352C24.0549 16.4987 24.2469 15.56 24.4603 14.536C20.2789 14.664 16.9936 15.0053 14.6042 15.56C12.2149 16.1147 10.5083 16.904 9.48425 17.928C8.50292 18.9093 8.01225 20.1893 8.01225 21.768C8.01225 23.2187 8.43892 24.6053 9.29225 25.928C9.46292 26.2267 9.54825 26.5467 9.54825 26.888C9.54825 27.6987 9.05758 28.4667 8.07625 29.192C7.13758 29.8747 6.15625 30.216 5.13225 30.216C4.40692 30.216 3.80958 30.0027 3.34025 29.576C2.48692 28.8507 1.78292 27.8267 1.22825 26.504C0.673583 25.1387 0.39625 23.6027 0.39625 21.896C0.39625 18.2693 1.56958 15.368 3.91625 13.192C6.30558 10.9733 9.91092 9.352 14.7323 8.328C19.5963 7.304 25.8256 6.792 33.4202 6.792C38.1136 6.792 41.8469 6.87733 44.6203 7.048C47.4363 7.21866 49.8896 7.496 51.9803 7.88ZM47.6628 61.32C45.0174 61.32 42.9054 60.36 41.3268 58.44C39.7481 56.52 38.9588 54.0027 38.9588 50.888C38.9588 47.4747 39.7481 44.2533 41.3268 41.224C42.9054 38.152 44.9961 35.6987 47.5988 33.864C50.2441 31.9867 53.0388 31.048 55.9828 31.048C56.9214 31.048 57.5401 31.24 57.8388 31.624C58.1801 31.9653 58.4574 32.6053 58.6708 33.544C59.5668 33.3733 60.5054 33.288 61.4868 33.288C63.5774 33.288 64.6228 34.0347 64.6228 35.528C64.6228 36.424 64.3028 38.5573 63.6628 41.928C62.6814 46.8347 62.1908 50.248 62.1908 52.168C62.1908 52.808 62.3401 53.32 62.6388 53.704C62.9801 54.088 63.4068 54.28 63.9188 54.28C64.7294 54.28 65.7108 53.768 66.8628 52.744C68.0148 51.6773 69.5721 49.9707 71.5348 47.624C72.0468 47.0267 72.6228 46.728 73.2628 46.728C73.8174 46.728 74.2441 46.984 74.5428 47.496C74.8841 48.008 75.0548 48.712 75.0548 49.608C75.0548 51.3147 74.6494 52.6373 73.8388 53.576C72.0894 55.752 70.2334 57.5867 68.2708 59.08C66.3081 60.5733 64.4094 61.32 62.5748 61.32C61.1668 61.32 59.8654 60.8507 58.6708 59.912C57.5188 58.9307 56.6441 57.608 56.0468 55.944C53.8281 59.528 51.0334 61.32 47.6628 61.32ZM49.9668 54.856C50.9054 54.856 51.8014 54.3013 52.6548 53.192C53.5081 52.0827 54.1268 50.6107 54.5108 48.776L56.8788 37C55.0868 37.0427 53.4228 37.7253 51.8868 39.048C50.3934 40.328 49.1988 42.0347 48.3028 44.168C47.4068 46.3013 46.9588 48.5627 46.9588 50.952C46.9588 52.2747 47.2148 53.256 47.7268 53.896C48.2814 54.536 49.0281 54.856 49.9668 54.856ZM81.7573 62.728C79.5386 62.728 77.8319 62.216 76.6373 61.192C75.4853 60.168 74.9093 59.016 74.9093 57.736C74.9093 56.6267 75.3146 55.6667 76.1253 54.856C76.9359 54.0453 78.1306 53.64 79.7093 53.64C80.2639 53.64 80.9039 53.704 81.6293 53.832C82.3973 53.9173 82.9733 53.9813 83.3573 54.024C83.3146 52.9147 83.0586 51.8693 82.5893 50.888C82.1626 49.9067 81.6079 48.968 80.9253 48.072C80.2426 47.1333 79.6026 46.3227 79.0053 45.64C77.6826 48.1573 76.3599 50.248 75.0373 51.912C73.7573 53.576 72.3493 55.1547 70.8133 56.648C70.0453 57.416 69.2346 57.8 68.3813 57.8C67.6986 57.8 67.1439 57.5653 66.7172 57.096C66.2906 56.584 66.0772 55.9653 66.0772 55.24C66.0772 54.3867 66.3759 53.5973 66.9733 52.872L67.8053 51.848C70.1519 48.9467 71.9226 46.5573 73.1173 44.68C73.8426 43.4427 74.6959 41.8 75.6773 39.752C76.6586 37.6613 77.6186 35.5067 78.5573 33.288C79.3679 31.4107 81.0533 30.472 83.6133 30.472C84.8079 30.472 85.6399 30.5787 86.1093 30.792C86.5786 31.0053 86.8133 31.3467 86.8133 31.816C86.8133 32.072 86.7279 32.4773 86.5573 33.032C86.3866 33.5867 86.1519 34.1413 85.8533 34.696C85.0853 36.232 84.7013 37.5333 84.7013 38.6C84.7013 39.24 84.9146 39.944 85.3413 40.712C85.8106 41.48 86.5146 42.44 87.4533 43.592C88.8186 45.384 89.8426 46.92 90.5253 48.2C91.2506 49.4373 91.6133 50.8027 91.6133 52.296C91.6133 52.7227 91.5706 53.32 91.4853 54.088C93.5759 53.2773 96.0293 51.1227 98.8453 47.624C99.3573 47.0267 99.9333 46.728 100.573 46.728C101.128 46.728 101.555 46.984 101.853 47.496C102.195 48.008 102.365 48.712 102.365 49.608C102.365 51.2293 101.96 52.552 101.149 53.576C99.0159 56.2213 96.9679 58.0347 95.0053 59.016C93.0853 59.9547 90.6959 60.4667 87.8373 60.552C86.1306 62.0027 84.1039 62.728 81.7573 62.728ZM134.158 46.728C134.712 46.728 135.139 46.984 135.438 47.496C135.779 48.008 135.95 48.712 135.95 49.608C135.95 51.3147 135.544 52.6373 134.734 53.576C132.814 55.9227 130.872 57.8 128.91 59.208C126.947 60.616 124.622 61.32 121.934 61.32C118.648 61.32 116.003 60.3813 113.998 58.504C111.992 56.6267 110.99 54.1307 110.99 51.016C110.99 49.352 111.843 48.1573 113.55 47.432C115.427 46.6213 116.771 45.768 117.582 44.872C118.392 43.9333 118.798 42.8027 118.798 41.48C118.798 40.712 118.627 40.136 118.286 39.752C117.987 39.368 117.603 39.176 117.134 39.176C115.982 39.176 114.702 40.008 113.294 41.672C111.928 43.336 110.648 45.4907 109.454 48.136C108.259 50.7387 107.32 53.4267 106.638 56.2C106.168 58.2053 105.614 59.5707 104.974 60.296C104.376 60.9787 103.416 61.32 102.094 61.32C100.771 61.32 99.7898 60.8507 99.1498 59.912C98.5524 58.9307 98.1471 57.4373 97.9338 55.432C97.7204 53.4267 97.6138 50.4827 97.6138 46.6C97.6138 40.0293 98.2751 33.1813 99.5978 26.056C100.963 18.9307 102.947 12.9573 105.55 8.136C108.195 3.272 111.352 0.839996 115.022 0.839996C116.984 0.839996 118.563 1.69333 119.758 3.4C120.995 5.064 121.614 7.24 121.614 9.928C121.614 14.2373 120.355 18.7173 117.838 23.368C115.32 27.976 111.224 33.3733 105.55 39.56C105.422 41.7787 105.358 44.0613 105.358 46.408C107.406 41.0747 109.752 37.2133 112.398 34.824C115.043 32.392 117.518 31.176 119.822 31.176C121.955 31.176 123.662 31.9013 124.942 33.352C126.264 34.8027 126.926 36.5947 126.926 38.728C126.926 41.0747 126.328 43.2293 125.134 45.192C123.939 47.1547 121.891 48.904 118.99 50.44C119.16 51.592 119.672 52.5307 120.526 53.256C121.422 53.9387 122.488 54.28 123.726 54.28C125.048 54.28 126.328 53.768 127.566 52.744C128.803 51.72 130.424 50.0133 132.43 47.624C132.942 47.0267 133.518 46.728 134.158 46.728ZM113.678 7.176C112.91 7.176 112.056 8.28533 111.118 10.504C110.179 12.68 109.262 15.6453 108.366 19.4C107.512 23.112 106.808 27.1653 106.254 31.56C108.899 28.4453 111.075 25.0533 112.782 21.384C114.531 17.7147 115.406 14.3867 115.406 11.4C115.406 10.0347 115.256 8.98933 114.958 8.264C114.659 7.53866 114.232 7.176 113.678 7.176ZM138.663 61.32C136.017 61.32 133.905 60.36 132.327 58.44C130.748 56.52 129.959 54.0027 129.959 50.888C129.959 47.4747 130.748 44.2533 132.327 41.224C133.905 38.152 135.996 35.6987 138.599 33.864C141.244 31.9867 144.039 31.048 146.983 31.048C147.921 31.048 148.54 31.24 148.839 31.624C149.18 31.9653 149.457 32.6053 149.671 33.544C150.567 33.3733 151.505 33.288 152.487 33.288C154.577 33.288 155.623 34.0347 155.623 35.528C155.623 36.424 155.303 38.5573 154.663 41.928C153.681 46.8347 153.191 50.248 153.191 52.168C153.191 52.808 153.34 53.32 153.639 53.704C153.98 54.088 154.407 54.28 154.919 54.28C155.729 54.28 156.711 53.768 157.863 52.744C159.015 51.6773 160.572 49.9707 162.535 47.624C163.047 47.0267 163.623 46.728 164.263 46.728C164.817 46.728 165.244 46.984 165.543 47.496C165.884 48.008 166.055 48.712 166.055 49.608C166.055 51.3147 165.649 52.6373 164.839 53.576C163.089 55.752 161.233 57.5867 159.271 59.08C157.308 60.5733 155.409 61.32 153.575 61.32C152.167 61.32 150.865 60.8507 149.671 59.912C148.519 58.9307 147.644 57.608 147.047 55.944C144.828 59.528 142.033 61.32 138.663 61.32ZM140.967 54.856C141.905 54.856 142.801 54.3013 143.655 53.192C144.508 52.0827 145.127 50.6107 145.511 48.776L147.879 37C146.087 37.0427 144.423 37.7253 142.887 39.048C141.393 40.328 140.199 42.0347 139.303 44.168C138.407 46.3013 137.959 48.5627 137.959 50.952C137.959 52.2747 138.215 53.256 138.727 53.896C139.281 54.536 140.028 54.856 140.967 54.856ZM195.029 46.728C195.584 46.728 196.011 46.984 196.309 47.496C196.651 48.008 196.821 48.712 196.821 49.608C196.821 51.3147 196.416 52.6373 195.605 53.576C193.771 55.8373 191.787 57.6933 189.653 59.144C187.563 60.5947 185.173 61.32 182.485 61.32C180.224 61.32 178.389 60.5093 176.981 58.888C174.549 60.4667 172.011 61.2773 169.365 61.32C168.811 69.5547 167.552 76.424 165.589 81.928C163.627 87.4747 160.747 90.248 156.949 90.248C154.645 90.248 152.939 89.416 151.829 87.752C150.72 86.088 150.165 83.784 150.165 80.84C150.165 76.6587 151.125 71.7733 153.045 66.184C154.965 60.6373 157.931 54.5147 161.941 47.816C161.941 41.5867 161.899 37.256 161.813 34.824C161.771 33.5867 162.261 32.6053 163.285 31.88C164.309 31.1547 165.589 30.792 167.125 30.792C168.021 30.792 168.661 30.984 169.045 31.368C169.472 31.7093 169.707 32.4133 169.749 33.48C169.749 34.5467 169.771 35.336 169.813 35.848C171.179 34.1413 172.523 32.9253 173.845 32.2C175.168 31.432 176.576 31.048 178.069 31.048C180.459 31.048 182.4 32.008 183.893 33.928C185.429 35.848 186.197 38.3653 186.197 41.48C186.197 43.7413 185.835 45.9387 185.109 48.072C184.384 50.2053 183.381 52.1467 182.101 53.896C182.997 54.152 183.744 54.28 184.341 54.28C185.749 54.28 187.093 53.768 188.373 52.744C189.653 51.72 191.296 50.0133 193.301 47.624C193.813 47.0267 194.389 46.728 195.029 46.728ZM169.685 55.176C171.221 54.8347 172.629 54.0027 173.909 52.68C175.232 51.3147 176.277 49.6507 177.045 47.688C177.813 45.6827 178.197 43.592 178.197 41.416C178.197 40.136 177.941 39.176 177.429 38.536C176.917 37.8533 176.235 37.512 175.381 37.512C173.845 37.512 171.989 39.1333 169.813 42.376C169.771 44.2533 169.749 47.0053 169.749 50.632C169.749 52.5947 169.728 54.1093 169.685 55.176ZM157.461 83.976C158.613 83.976 159.573 81.4587 160.341 76.424C161.109 71.432 161.6 65.2027 161.813 57.736C159.979 62.0027 158.528 66.0773 157.461 69.96C156.395 73.8427 155.861 77.1067 155.861 79.752C155.861 81.1173 156.032 82.1627 156.373 82.888C156.672 83.6133 157.035 83.976 157.461 83.976ZM217.01 41.48C217.01 44.8507 216.22 48.0507 214.642 51.08C213.106 54.0667 211.036 56.4987 208.434 58.376C205.874 60.2533 203.122 61.2347 200.178 61.32C199.623 69.5547 198.364 76.424 196.402 81.928C194.439 87.4747 191.559 90.248 187.762 90.248C185.458 90.248 183.751 89.416 182.642 87.752C181.532 86.088 180.978 83.784 180.978 80.84C180.978 76.6587 181.938 71.7733 183.858 66.184C185.778 60.6373 188.743 54.5147 192.754 47.816C192.754 41.5867 192.711 37.256 192.626 34.824C192.583 33.5867 193.074 32.6053 194.098 31.88C195.122 31.1547 196.402 30.792 197.938 30.792C198.834 30.792 199.474 30.984 199.858 31.368C200.284 31.7093 200.519 32.4133 200.562 33.48C200.562 34.5467 200.583 35.336 200.626 35.848C201.991 34.1413 203.335 32.9253 204.658 32.2C205.98 31.432 207.388 31.048 208.882 31.048C211.271 31.048 213.212 32.008 214.706 33.928C216.242 35.848 217.01 38.3653 217.01 41.48ZM200.498 55.176C202.034 54.8347 203.442 54.0027 204.722 52.68C206.044 51.3147 207.09 49.6507 207.858 47.688C208.626 45.6827 209.01 43.592 209.01 41.416C209.01 40.136 208.754 39.176 208.242 38.536C207.73 37.8533 207.047 37.512 206.194 37.512C204.658 37.512 202.802 39.1333 200.626 42.376C200.583 44.2533 200.562 47.0053 200.562 50.632C200.562 52.5947 200.54 54.1093 200.498 55.176ZM188.274 83.976C189.426 83.976 190.386 81.4587 191.154 76.424C191.922 71.432 192.412 65.2027 192.626 57.736C190.791 62.0027 189.34 66.0773 188.274 69.96C187.207 73.8427 186.674 77.1067 186.674 79.752C186.674 81.1173 186.844 82.1627 187.186 82.888C187.484 83.6133 187.847 83.976 188.274 83.976Z" fill="white"/>
</svg>
